<?xml version="1.0" standalone="no"?><!DOCTYPE svg PUBLIC "-//W3C//DTD SVG 1.1//EN" "http://www.w3.org/Graphics/SVG/1.1/DTD/svg11.dtd"><svg t="1652153209746" class="icon" viewBox="0 0 1024 1024" version="1.1" xmlns="http://www.w3.org/2000/svg" p-id="3656" xmlns:xlink="http://www.w3.org/1999/xlink" width="128" height="128"><defs><style type="text/css">@font-face { font-family: feedback-iconfont; src: url("//at.alicdn.com/t/font_1031158_u69w8yhxdu.woff2?t=1630033759944") format("woff2"), url("//at.alicdn.com/t/font_1031158_u69w8yhxdu.woff?t=1630033759944") format("woff"), url("//at.alicdn.com/t/font_1031158_u69w8yhxdu.ttf?t=1630033759944") format("truetype"); }
</style></defs><path d="M320 354.56h384a21.333333 21.333333 0 1 0 0-42.666667H320a21.333333 21.333333 0 0 0 0 42.666667zM320 503.893333h384a21.333333 21.333333 0 0 0 0-42.666666H320a21.333333 21.333333 0 0 0 0 42.666666z" p-id="3657"></path><path d="M874.666667 106.666667H192a64 64 0 0 0-64 64v661.333333a85.333333 85.333333 0 0 0 85.333333 85.333333h682.666667v-42.666666a42.666667 42.666667 0 0 1 0-85.333334V128a21.333333 21.333333 0 0 0-21.333333-21.333333z m-52.48 768H213.333333a42.666667 42.666667 0 0 1 0-85.333334h608.853334a85.333333 85.333333 0 0 0 0 85.333334zM853.333333 746.666667H213.333333a83.413333 83.413333 0 0 0-42.666666 11.946666V170.666667a21.333333 21.333333 0 0 1 21.333333-21.333334h661.333333z" p-id="3658"></path></svg>